<svg xmlns="http://www.w3.org/2000/svg" width="1200" height="720" viewBox="0 0 1200 720" fill="none">
  <rect width="1200" height="720" fill="#08111B"/>
  <rect x="60" y="60" width="1080" height="600" rx="28" fill="#0F1A27" stroke="#1E3346"/>
  <text x="90" y="120" fill="#E8F1F8" font-family="Arial, sans-serif" font-size="34" font-weight="700">ReconCopilot Architecture</text>
  <text x="90" y="155" fill="#8CA5BA" font-family="Arial, sans-serif" font-size="18">Deterministic reconciliation core with AI-assisted reasoning and a real MCP tool surface.</text>
  <rect x="90" y="210" width="250" height="160" rx="20" fill="#142536" stroke="#23435E"/>
  <text x="115" y="250" fill="#79E2B1" font-family="Arial, sans-serif" font-size="24" font-weight="700">Frontend Workspace</text>
  <text x="115" y="290" fill="#DCE7F0" font-family="Arial, sans-serif" font-size="18">React + Vite UI</text>
  <text x="115" y="320" fill="#DCE7F0" font-family="Arial, sans-serif" font-size="18">File intake</text>
  <text x="115" y="348" fill="#DCE7F0" font-family="Arial, sans-serif" font-size="18">Results review</text>
  <text x="115" y="376" fill="#DCE7F0" font-family="Arial, sans-serif" font-size="18">Analyst chat</text>
  <rect x="475" y="190" width="280" height="210" rx="20" fill="#162A3D" stroke="#2A4D6A"/>
  <text x="500" y="230" fill="#A7D3FF" font-family="Arial, sans-serif" font-size="24" font-weight="700">Express Application</text>
  <text x="500" y="270" fill="#E8F1F8" font-family="Arial, sans-serif" font-size="18">/api/inspect</text>
  <text x="500" y="298" fill="#E8F1F8" font-family="Arial, sans-serif" font-size="18">/api/suggest-mapping</text>
  <text x="500" y="326" fill="#E8F1F8" font-family="Arial, sans-serif" font-size="18">/api/reconcile</text>
  <text x="500" y="354" fill="#E8F1F8" font-family="Arial, sans-serif" font-size="18">/mcp</text>
  <rect x="860" y="210" width="250" height="160" rx="20" fill="#1A2635" stroke="#38506A"/>
  <text x="885" y="250" fill="#FFD37A" font-family="Arial, sans-serif" font-size="24" font-weight="700">OpenAI Layer</text>
  <text x="885" y="290" fill="#E8F1F8" font-family="Arial, sans-serif" font-size="18">Schema mapping</text>
  <text x="885" y="318" fill="#E8F1F8" font-family="Arial, sans-serif" font-size="18">Mismatch clustering</text>
  <text x="885" y="346" fill="#E8F1F8" font-family="Arial, sans-serif" font-size="18">Analyst explanations</text>
  <rect x="180" y="470" width="360" height="130" rx="20" fill="#182E22" stroke="#285942"/>
  <text x="205" y="512" fill="#8EF0B8" font-family="Arial, sans-serif" font-size="24" font-weight="700">Deterministic Engine</text>
  <text x="205" y="548" fill="#E8F1F8" font-family="Arial, sans-serif" font-size="18">CSV parsing, normalization, validation, reconciliation</text>
  <rect x="660" y="470" width="360" height="130" rx="20" fill="#261E31" stroke="#4E3E66"/>
  <text x="685" y="512" fill="#E6B6FF" font-family="Arial, sans-serif" font-size="24" font-weight="700">MCP Tool Surface</text>
  <text x="685" y="548" fill="#E8F1F8" font-family="Arial, sans-serif" font-size="18">load_sample_dataset, inspect_csv, validate_mapping, run_reconciliation</text>
  <path d="M340 290H475" stroke="#4D84A6" stroke-width="4"/>
  <path d="M755 290H860" stroke="#4D84A6" stroke-width="4"/>
  <path d="M615 400V470" stroke="#4D84A6" stroke-width="4"/>
  <path d="M480 535H540" stroke="#4D84A6" stroke-width="4"/>
  <path d="M755 535H660" stroke="#4D84A6" stroke-width="4"/>
</svg>
